<mxfile host="65bd71144e">
    <diagram id="hXWEJYTh561vb1qXt9K1" name="Page-1">
        <mxGraphModel dx="925" dy="692" grid="1" gridSize="10" guides="1" tooltips="1" connect="1" arrows="1" fold="1" page="1" pageScale="1" pageWidth="827" pageHeight="1169" math="0" shadow="0">
            <root>
                <mxCell id="0"/>
                <mxCell id="1" parent="0"/>
                <mxCell id="10" value="" style="group" vertex="1" connectable="0" parent="1">
                    <mxGeometry x="620" y="240" width="180" height="120" as="geometry"/>
                </mxCell>
                <mxCell id="11" value="ProprieteFactory" style="rounded=0;whiteSpace=wrap;html=1;" vertex="1" parent="10">
                    <mxGeometry width="180" height="60" as="geometry"/>
                </mxCell>
                <mxCell id="12" value="+createProduct(type)" style="rounded=0;whiteSpace=wrap;html=1;" vertex="1" parent="10">
                    <mxGeometry y="60" width="180" height="60" as="geometry"/>
                </mxCell>
                <mxCell id="13" value="" style="group" vertex="1" connectable="0" parent="1">
                    <mxGeometry x="350" y="30" width="200" height="250" as="geometry"/>
                </mxCell>
                <mxCell id="14" value="Atelier2.Propriete&amp;nbsp;&lt;font color=&quot;#ffffff&quot;&gt;&amp;lt;&amp;lt; abstract&amp;nbsp;&lt;/font&gt;&amp;gt;&amp;gt;" style="rounded=0;whiteSpace=wrap;html=1;" vertex="1" parent="13">
                    <mxGeometry width="200" height="60" as="geometry"/>
                </mxCell>
                <mxCell id="29" value="" style="edgeStyle=none;html=1;fontColor=#FFFFFF;" edge="1" parent="13" source="15" target="16">
                    <mxGeometry relative="1" as="geometry"/>
                </mxCell>
                <mxCell id="15" value="&lt;p&gt;&lt;font color=&quot;#ffffff&quot;&gt;&lt;span style=&quot;font-family: -webkit-standard; font-size: medium; text-align: start; caret-color: rgb(0, 0, 0);&quot;&gt;#prix : int&lt;/span&gt;&lt;br&gt;&lt;/font&gt;&lt;/p&gt;&lt;p&gt;&lt;span style=&quot;font-family: var(--monaco-monospace-font);&quot;&gt;&lt;font style=&quot;&quot; color=&quot;#ffffff&quot;&gt;#nom : String&lt;/font&gt;&lt;/span&gt;&lt;/p&gt;" style="rounded=0;whiteSpace=wrap;html=1;" vertex="1" parent="13">
                    <mxGeometry y="60.336956521739125" width="200" height="57.96739130434782" as="geometry"/>
                </mxCell>
                <mxCell id="16" value="&lt;span style=&quot;color: rgb(255, 255, 255); background-color: transparent; font-family: Arial, sans-serif; font-size: 11px; text-align: start; caret-color: rgb(0, 0, 0);&quot;&gt;&lt;br&gt;&lt;ul&gt;&lt;li&gt;&lt;span style=&quot;color: rgb(255, 255, 255); font-family: Arial, sans-serif; font-size: 11px; text-align: start; caret-color: rgb(0, 0, 0);&quot;&gt;+getPrix() : int&lt;/span&gt;&lt;/li&gt;&lt;li&gt;&lt;span style=&quot;color: rgb(255, 255, 255); background-color: transparent; font-family: Arial, sans-serif; font-size: 11px; text-align: start; caret-color: rgb(0, 0, 0);&quot;&gt;+setPrix(prix : int) : void&lt;/span&gt;&lt;/li&gt;&lt;li&gt;&lt;span style=&quot;font-family: Arial, sans-serif; background-color: transparent; font-variant-alternates: normal; font-variant-numeric: normal; font-variant-east-asian: normal; font-variant-position: normal; vertical-align: baseline;&quot;&gt;&lt;font color=&quot;#ffffff&quot;&gt;+getNom() : String&lt;/font&gt;&lt;/span&gt;&lt;/li&gt;&lt;li&gt;&lt;span style=&quot;font-family: Arial, sans-serif; background-color: transparent; font-variant-alternates: normal; font-variant-numeric: normal; font-variant-east-asian: normal; font-variant-position: normal; vertical-align: baseline;&quot;&gt;&lt;font color=&quot;#ffffff&quot;&gt;+setNom(nom : String) : void&lt;/font&gt;&lt;/span&gt;&lt;/li&gt;&lt;li&gt;&lt;span style=&quot;font-family: Arial, sans-serif; background-color: transparent; font-variant-alternates: normal; font-variant-numeric: normal; font-variant-east-asian: normal; font-variant-position: normal; vertical-align: baseline;&quot;&gt;&lt;font color=&quot;#ffffff&quot;&gt;+afficher() : void&lt;/font&gt;&lt;/span&gt;&lt;/li&gt;&lt;/ul&gt;&lt;/span&gt;&lt;p style=&quot;font-size: 11px; text-align: start; caret-color: rgb(0, 0, 0); background-color: initial; line-height: 1.38; margin-top: 0pt; margin-bottom: 0pt;&quot; dir=&quot;ltr&quot;&gt;&lt;/p&gt;" style="rounded=0;whiteSpace=wrap;html=1;" vertex="1" parent="13">
                    <mxGeometry y="120" width="200" height="130" as="geometry"/>
                </mxCell>
                <mxCell id="17" value="" style="edgeStyle=none;html=1;fontColor=#FFFFFF;" edge="1" parent="1" source="19" target="16">
                    <mxGeometry relative="1" as="geometry"/>
                </mxCell>
                <mxCell id="18" value="" style="group" vertex="1" connectable="0" parent="1">
                    <mxGeometry x="340" y="430" width="180" height="120" as="geometry"/>
                </mxCell>
                <mxCell id="19" value="Gare" style="rounded=0;whiteSpace=wrap;html=1;" vertex="1" parent="18">
                    <mxGeometry width="180" height="60" as="geometry"/>
                </mxCell>
                <mxCell id="20" value="&lt;p style=&quot;margin: 0px; font-variant-numeric: normal; font-variant-east-asian: normal; font-variant-alternates: normal; font-size-adjust: none; font-kerning: auto; font-optical-sizing: auto; font-feature-settings: normal; font-variation-settings: normal; font-variant-position: normal; font-stretch: normal; font-size: 11px; line-height: normal; text-align: start;&quot; class=&quot;p1&quot;&gt;&lt;font color=&quot;#ffffff&quot;&gt;+ afficher()&lt;/font&gt;&lt;/p&gt;" style="rounded=0;whiteSpace=wrap;html=1;" vertex="1" parent="18">
                    <mxGeometry y="60" width="180" height="60" as="geometry"/>
                </mxCell>
                <mxCell id="21" value="" style="group" vertex="1" connectable="0" parent="1">
                    <mxGeometry x="530" y="430" width="180" height="120" as="geometry"/>
                </mxCell>
                <mxCell id="22" value="Terrain" style="rounded=0;whiteSpace=wrap;html=1;" vertex="1" parent="21">
                    <mxGeometry width="180" height="60" as="geometry"/>
                </mxCell>
                <mxCell id="23" value="&lt;p style=&quot;margin: 0px; font-variant-numeric: normal; font-variant-east-asian: normal; font-variant-alternates: normal; font-size-adjust: none; font-kerning: auto; font-optical-sizing: auto; font-feature-settings: normal; font-variation-settings: normal; font-variant-position: normal; font-stretch: normal; font-size: 11px; line-height: normal; text-align: start;&quot; class=&quot;p1&quot;&gt;&lt;font color=&quot;#ffffff&quot;&gt;+ afficher()&lt;/font&gt;&lt;/p&gt;" style="rounded=0;whiteSpace=wrap;html=1;" vertex="1" parent="21">
                    <mxGeometry y="60" width="180" height="60" as="geometry"/>
                </mxCell>
                <mxCell id="24" value="" style="group" vertex="1" connectable="0" parent="1">
                    <mxGeometry x="140" y="430" width="180" height="120" as="geometry"/>
                </mxCell>
                <mxCell id="25" value="Compagnie" style="rounded=0;whiteSpace=wrap;html=1;" vertex="1" parent="24">
                    <mxGeometry width="180" height="60" as="geometry"/>
                </mxCell>
                <mxCell id="26" value="&lt;p style=&quot;margin: 0px; font-variant-numeric: normal; font-variant-east-asian: normal; font-variant-alternates: normal; font-size-adjust: none; font-kerning: auto; font-optical-sizing: auto; font-feature-settings: normal; font-variation-settings: normal; font-variant-position: normal; font-stretch: normal; font-size: 11px; line-height: normal; text-align: start;&quot; class=&quot;p1&quot;&gt;&lt;font color=&quot;#ffffff&quot;&gt;+ afficher()&lt;/font&gt;&lt;/p&gt;" style="rounded=0;whiteSpace=wrap;html=1;" vertex="1" parent="24">
                    <mxGeometry y="60" width="180" height="60" as="geometry"/>
                </mxCell>
                <mxCell id="27" style="edgeStyle=none;html=1;entryX=0;entryY=1;entryDx=0;entryDy=0;fontColor=#FFFFFF;" edge="1" parent="1" source="25" target="16">
                    <mxGeometry relative="1" as="geometry"/>
                </mxCell>
                <mxCell id="28" value="" style="edgeStyle=none;html=1;fontColor=#FFFFFF;" edge="1" parent="1" source="22" target="16">
                    <mxGeometry relative="1" as="geometry"/>
                </mxCell>
            </root>
        </mxGraphModel>
    </diagram>
</mxfile>